<?xml version="1.0" encoding="UTF-8" standalone="no"?>
<!-- Generator: Adobe Illustrator 16.0.0, SVG Export Plug-In . SVG Version: 6.00 Build 0)  -->

<svg
   xmlns:dc="http://purl.org/dc/elements/1.1/"
   xmlns:cc="http://creativecommons.org/ns#"
   xmlns:rdf="http://www.w3.org/1999/02/22-rdf-syntax-ns#"
   xmlns:svg="http://www.w3.org/2000/svg"
   xmlns="http://www.w3.org/2000/svg"
   xmlns:sodipodi="http://sodipodi.sourceforge.net/DTD/sodipodi-0.dtd"
   xmlns:inkscape="http://www.inkscape.org/namespaces/inkscape"
   version="1.1"
   id="Capa_1"
   x="0px"
   y="0px"
   width="124.256px"
   height="124.256px"
   viewBox="0 0 124.256 124.256"
   style="enable-background:new 0 0 124.256 124.256;"
   xml:space="preserve"
   inkscape:version="0.91 r13725"
   sodipodi:docname="man_eating.svg"><metadata
   id="metadata41"><rdf:RDF><cc:Work
       rdf:about=""><dc:format>image/svg+xml</dc:format><dc:type
         rdf:resource="http://purl.org/dc/dcmitype/StillImage" /></cc:Work></rdf:RDF></metadata><defs
   id="defs39" /><sodipodi:namedview
   pagecolor="#ffffff"
   bordercolor="#666666"
   borderopacity="1"
   objecttolerance="10"
   gridtolerance="10"
   guidetolerance="10"
   inkscape:pageopacity="0"
   inkscape:pageshadow="2"
   inkscape:window-width="701"
   inkscape:window-height="480"
   id="namedview37"
   showgrid="false"
   inkscape:zoom="1.8993047"
   inkscape:cx="62.127998"
   inkscape:cy="62.127998"
   inkscape:window-x="0"
   inkscape:window-y="0"
   inkscape:window-maximized="0"
   inkscape:current-layer="Capa_1" />
<g
   id="g3"
   style="fill:#99bb27;fill-opacity:1">
	<path
   d="M56.148,108.666c0.374,3.228-1.939,6.147-5.168,6.522c-0.231,0.026-0.458,0.039-0.685,0.039   c-2.946,0-5.491-2.209-5.839-5.207l-3.369-29.068c0,0-16.414,0.062-16.731,0.062c-5.661,0.002-11.769-3.806-11.769-9.957   l-0.002-28.31c0-5.275,4.595-8.789,8.909-9.847l0.037-0.005c0,0,1.533-0.319,2.907-0.351c1.436-0.031,2.787,0.373,2.787,0.373   c2.832,0.694,5.799,2.474,7.491,5.116c0.019,0.026,0.043,0.045,0.063,0.071c2.326,3.179,3.953,3.686,4.288,3.695   c0.459-0.247,1.916-2.981,0.473-7.84c-0.622-2.094,0.2-4.269,1.886-5.469l-2.461-1.692l0.513-0.746l2.822,1.94   c0.029-0.014,0.058-0.029,0.088-0.042l-2.694-3.513l0.718-0.552l2.9,3.781c2.504-0.52,5.033,0.96,5.774,3.456   c2.563,8.63,0.245,16.693-5.639,19.61c-0.789,0.392-2.364,1.007-4.433,1.007c-0.881,0-1.854-0.118-2.893-0.406v17.853l10.2-0.01   c0.002,0,0.003,0,0.005,0c2.988,0,5.501,2.239,5.846,5.208L56.148,108.666z M27.226,32.122c7.083,0,12.825-5.742,12.825-12.825   S34.309,6.472,27.226,6.472s-12.825,5.742-12.825,12.825S20.143,32.122,27.226,32.122z M39.531,87.628   c0-2.75-2.229-4.979-4.979-4.979H9.958V43.155c0-2.749-2.229-4.979-4.979-4.979S0,40.405,0,43.155v44.473   c0,1.419,0.597,2.697,1.551,3.604c-0.383,1.157-0.597,2.391-0.597,3.674v18.709c0,2.303,1.867,4.17,4.169,4.17   c2.302,0,4.169-1.867,4.169-4.17V94.905c0-0.889,0.35-1.691,0.907-2.299h18.928c0.559,0.606,0.907,1.41,0.907,2.299v18.709   c0,2.303,1.867,4.17,4.17,4.17c2.302,0,4.169-1.867,4.169-4.17V94.905c0-1.231-0.192-2.418-0.546-3.534   C38.87,90.459,39.531,89.122,39.531,87.628z M124.256,62.29H94.531h-18.78H46.027v5.962H57.13c-0.907,1.644-1.425,3.53-1.425,5.535   v27.681c0,6.34,5.157,11.497,11.498,11.497v-5.963c-3.055,0-5.537-2.481-5.537-5.534V73.787c0-3.052,2.482-5.535,5.537-5.535h9.507   h16.862h9.508c3.054,0,5.535,2.483,5.535,5.535v27.681c0,3.053-2.481,5.534-5.535,5.534v5.963c6.341,0,11.498-5.157,11.498-11.497   V73.787c0-2.005-0.518-3.892-1.426-5.535h11.104V62.29z M60.796,58.64v-0.001H70.3l-0.065-0.198l-0.049,0.146l-3.281-1.111   l0.5,0.41l-0.573,0.7l-0.735-0.603l-0.016,0.356l-3.605-0.162l0.04-0.903l2.874,0.13l-0.595-0.487l0.575-0.7l1.337,1.096   l0.262-0.771l1.313,0.444l2.539-3.258l0.716,0.558l-1.375,1.764l1.215,0.411v-0.609h4.64v0.406l1.084-0.36l0.285,0.859l-5.65,1.883   h8.072c0,1.03-4.256,1.865-9.506,1.865C65.052,60.505,60.796,59.67,60.796,58.64z M72.252,56.757l1.119,0.379l-0.002,0.005   l1.15-0.384H72.252z M70.477,57.731l-0.143,0.422l1.62-0.541l-2.382-0.806l-0.383,0.489L70.477,57.731z M68.577,55.561   l-2.812-0.315l-0.101,0.9l2.812,0.315L68.577,55.561z M82.452,60.024l-0.874-13.698h9.275l-0.58,13.698H82.452z M89.729,51.534   c-0.344,0.26-0.873,0.565-1.485,0.565c-0.028,0-0.058-0.001-0.087-0.003c-0.613-0.029-1.151-0.352-1.603-0.96   c-1.036-1.395-3.446,0.097-3.469,0.113c-0.088,0.056-0.185,0.07-0.281,0.061l0.497,7.809h6.105L89.729,51.534z M82.543,47.232   l0.201,3.167c0.629-0.359,3.17-1.644,4.535,0.199c0.285,0.385,0.586,0.579,0.918,0.596c0.685,0.014,1.263-0.623,1.269-0.629   c0.083-0.091,0.195-0.14,0.31-0.147l0.136-3.186H82.543z"
   id="path5"
   style="fill:#99bb27;fill-opacity:1" />
</g>
<g
   id="g7">
</g>
<g
   id="g9">
</g>
<g
   id="g11">
</g>
<g
   id="g13">
</g>
<g
   id="g15">
</g>
<g
   id="g17">
</g>
<g
   id="g19">
</g>
<g
   id="g21">
</g>
<g
   id="g23">
</g>
<g
   id="g25">
</g>
<g
   id="g27">
</g>
<g
   id="g29">
</g>
<g
   id="g31">
</g>
<g
   id="g33">
</g>
<g
   id="g35">
</g>
</svg>