<?xml version="1.0" encoding="UTF-8" standalone="no"?>
<!-- Generator: Adobe Illustrator 16.0.0, SVG Export Plug-In . SVG Version: 6.00 Build 0)  -->

<svg
   xmlns:dc="http://purl.org/dc/elements/1.1/"
   xmlns:cc="http://creativecommons.org/ns#"
   xmlns:rdf="http://www.w3.org/1999/02/22-rdf-syntax-ns#"
   xmlns:svg="http://www.w3.org/2000/svg"
   xmlns="http://www.w3.org/2000/svg"
   xmlns:sodipodi="http://sodipodi.sourceforge.net/DTD/sodipodi-0.dtd"
   xmlns:inkscape="http://www.inkscape.org/namespaces/inkscape"
   version="1.1"
   id="Capa_1"
   x="0px"
   y="0px"
   width="75.522003"
   height="43.793999"
   viewBox="0 0 75.522003 43.793999"
   xml:space="preserve"
   inkscape:version="0.91 r13725"
   sodipodi:docname="shipping.svg"><metadata
   id="metadata41"><rdf:RDF><cc:Work
       rdf:about=""><dc:format>image/svg+xml</dc:format><dc:type
         rdf:resource="http://purl.org/dc/dcmitype/StillImage" /><dc:title></dc:title></cc:Work></rdf:RDF></metadata><defs
   id="defs39" /><sodipodi:namedview
   pagecolor="#ffffff"
   bordercolor="#666666"
   borderopacity="1"
   objecttolerance="10"
   gridtolerance="10"
   guidetolerance="10"
   inkscape:pageopacity="0"
   inkscape:pageshadow="2"
   inkscape:window-width="1600"
   inkscape:window-height="837"
   id="namedview37"
   showgrid="false"
   inkscape:zoom="5.0912543"
   inkscape:cx="23.177"
   inkscape:cy="23.177"
   inkscape:window-x="-8"
   inkscape:window-y="-8"
   inkscape:window-maximized="1"
   inkscape:current-layer="Capa_1" />
<g
   id="g3"
   style="fill:#99bb27;fill-opacity:1"
   transform="matrix(1.629235,0,0,1.629235,2.2199191e-4,-15.86378)">
	<path
   d="m 45.186,27.226 0,-0.496 -4.175,-13.713 -9.239,0 0,-3.28 -22.209,0 0,8.487 -4.729,0 -2,2.667 6.729,0 0,1.928 0,0.072 -7.563,0 -2,2.667 9.562,0 0,1.668 -1.062,0 0,4.5 1.062,0 0,0.668 0.722,0 c 0.404,2.393 2.485,4.223 4.992,4.223 2.507,0 4.587,-1.83 4.991,-4.223 l 11.382,0 c 0.402,2.393 2.483,4.223 4.99,4.223 2.506,0 4.588,-1.83 4.991,-4.223 l 3.555,0 0,-0.668 1.169,0 0,-4.5 -1.168,0 0,0 z m -29.91,7.007 c -1.479,0 -2.684,-1.205 -2.684,-2.686 0,-1.479 1.204,-2.683 2.684,-2.683 1.479,0 2.683,1.203 2.683,2.683 0,1.481 -1.204,2.686 -2.683,2.686 z m 21.364,0 c -1.479,0 -2.685,-1.205 -2.685,-2.686 0,-1.479 1.205,-2.683 2.685,-2.683 1.48,0 2.683,1.203 2.683,2.683 -10e-4,1.481 -1.204,2.686 -2.683,2.686 z m -2.484,-12.758 0,-6.074 5.088,0 1.85,6.074 -6.938,0 z"
   id="path5"
   style="fill:#99bb27;fill-opacity:1"
   inkscape:connector-curvature="0" />
</g>
<g
   id="g7"
   transform="translate(0,-2.5600001)">
</g>
<g
   id="g9"
   transform="translate(0,-2.5600001)">
</g>
<g
   id="g11"
   transform="translate(0,-2.5600001)">
</g>
<g
   id="g13"
   transform="translate(0,-2.5600001)">
</g>
<g
   id="g15"
   transform="translate(0,-2.5600001)">
</g>
<g
   id="g17"
   transform="translate(0,-2.5600001)">
</g>
<g
   id="g19"
   transform="translate(0,-2.5600001)">
</g>
<g
   id="g21"
   transform="translate(0,-2.5600001)">
</g>
<g
   id="g23"
   transform="translate(0,-2.5600001)">
</g>
<g
   id="g25"
   transform="translate(0,-2.5600001)">
</g>
<g
   id="g27"
   transform="translate(0,-2.5600001)">
</g>
<g
   id="g29"
   transform="translate(0,-2.5600001)">
</g>
<g
   id="g31"
   transform="translate(0,-2.5600001)">
</g>
<g
   id="g33"
   transform="translate(0,-2.5600001)">
</g>
<g
   id="g35"
   transform="translate(0,-2.5600001)">
</g>
</svg>