<?xml version="1.0" encoding="iso-8859-1"?>
<!-- Generator: Adobe Illustrator 16.0.0, SVG Export Plug-In . SVG Version: 6.00 Build 0)  -->
<!DOCTYPE svg PUBLIC "-//W3C//DTD SVG 1.1//EN" "http://www.w3.org/Graphics/SVG/1.1/DTD/svg11.dtd">
<svg version="1.1" id="Capa_1" xmlns="http://www.w3.org/2000/svg" xmlns:xlink="http://www.w3.org/1999/xlink" x="0px" y="0px"
	 width="373.879px" height="373.878px" viewBox="0 0 373.879 373.878" style="enable-background:new 0 0 373.879 373.878;"
	 xml:space="preserve">
<g>
	<g>
		<g>
			<path d="M327.561,75.678v70.536h33.35V75.678c0-10.481-8.576-19.056-19.057-19.056c0,0-12.277,0-21.416,0
				C314.312,56.622,327.561,60.837,327.561,75.678z"/>
			<path d="M327.561,227.667v70.536c0,15.803-12.387,19.056-4.164,19.056c5.717,0,18.457,0,18.457,0
				c10.48,0,19.057-8.575,19.057-19.056v-70.536H327.561z"/>
		</g>
		<path d="M361.879,156.212h-93.408c-6.602,0-12,5.4-12,12v37.453c0,6.602,5.398,12,12,12h93.408c6.6,0,12-5.398,12-12v-37.453
			C373.879,161.612,368.479,156.212,361.879,156.212z M289.062,200.939c-7.73,0-14-6.268-14-14c0-7.731,6.27-14,14-14
			c7.732,0,14,6.268,14,14C303.062,194.671,296.795,200.939,289.062,200.939z"/>
		<path d="M258.471,146.212h56.703V75.676c0-10.48-8.574-19.056-19.057-19.056H19.057C8.576,56.621,0,65.196,0,75.676v222.524
			c0,10.48,8.575,19.056,19.057,19.056h277.062c10.48,0,19.057-8.575,19.057-19.056v-70.536h-56.705c-6.602,0-12-5.399-12-12
			v-57.453C246.471,151.612,251.871,146.212,258.471,146.212z M275.189,74.939h8c3.037,0,5.5,2.462,5.5,5.5s-2.463,5.5-5.5,5.5h-8
			c-3.037,0-5.5-2.462-5.5-5.5S272.152,74.939,275.189,74.939z M280.062,284.035h8c3.037,0,5.5,2.462,5.5,5.5
			c0,3.037-2.463,5.5-5.5,5.5h-8c-3.037,0-5.5-2.463-5.5-5.5C274.562,286.497,277.025,284.035,280.062,284.035z M30.673,286.423
			c0,3.038-2.463,5.5-5.5,5.5s-5.5-2.462-5.5-5.5v-8c0-3.038,2.463-5.5,5.5-5.5s5.5,2.462,5.5,5.5V286.423z M30.673,248.423
			c0,3.038-2.463,5.5-5.5,5.5s-5.5-2.462-5.5-5.5v-8c0-3.038,2.463-5.5,5.5-5.5s5.5,2.462,5.5,5.5V248.423z M30.673,210.423
			c0,3.038-2.463,5.5-5.5,5.5s-5.5-2.462-5.5-5.5v-8c0-3.037,2.463-5.5,5.5-5.5s5.5,2.463,5.5,5.5V210.423z M30.673,172.423
			c0,3.038-2.463,5.5-5.5,5.5s-5.5-2.462-5.5-5.5v-8c0-3.038,2.463-5.5,5.5-5.5s5.5,2.462,5.5,5.5V172.423z M30.673,134.423
			c0,3.038-2.463,5.5-5.5,5.5s-5.5-2.462-5.5-5.5v-8c0-3.038,2.463-5.5,5.5-5.5s5.5,2.462,5.5,5.5V134.423z M30.673,96.423
			c0,3.038-2.463,5.5-5.5,5.5s-5.5-2.462-5.5-5.5v-8c0-3.038,2.463-5.5,5.5-5.5s5.5,2.462,5.5,5.5V96.423z M41.689,80.439
			c0-3.038,2.463-5.5,5.5-5.5h8c3.037,0,5.5,2.462,5.5,5.5s-2.463,5.5-5.5,5.5h-8C44.152,85.939,41.689,83.478,41.689,80.439z
			 M60.063,295.035h-8c-3.037,0-5.5-2.463-5.5-5.5c0-3.038,2.463-5.5,5.5-5.5h8c3.037,0,5.5,2.462,5.5,5.5
			C65.563,292.572,63.1,295.035,60.063,295.035z M79.689,80.439c0-3.038,2.463-5.5,5.5-5.5h8c3.037,0,5.5,2.462,5.5,5.5
			s-2.463,5.5-5.5,5.5h-8C82.152,85.939,79.689,83.478,79.689,80.439z M98.063,295.035h-8c-3.037,0-5.5-2.463-5.5-5.5
			c0-3.038,2.463-5.5,5.5-5.5h8c3.037,0,5.5,2.462,5.5,5.5C103.563,292.572,101.1,295.035,98.063,295.035z M117.689,80.439
			c0-3.038,2.463-5.5,5.5-5.5h8c3.037,0,5.5,2.462,5.5,5.5s-2.463,5.5-5.5,5.5h-8C120.152,85.939,117.689,83.478,117.689,80.439z
			 M136.063,295.035h-8c-3.037,0-5.5-2.463-5.5-5.5c0-3.038,2.463-5.5,5.5-5.5h8c3.037,0,5.5,2.462,5.5,5.5
			C141.563,292.572,139.1,295.035,136.063,295.035z M155.689,80.439c0-3.038,2.463-5.5,5.5-5.5h8c3.037,0,5.5,2.462,5.5,5.5
			s-2.463,5.5-5.5,5.5h-8C158.152,85.939,155.689,83.478,155.689,80.439z M174.063,295.035h-8c-3.037,0-5.5-2.463-5.5-5.5
			c0-3.038,2.463-5.5,5.5-5.5h8c3.037,0,5.5,2.462,5.5,5.5C179.563,292.572,177.1,295.035,174.063,295.035z M193.689,80.439
			c0-3.038,2.463-5.5,5.5-5.5h8c3.037,0,5.5,2.462,5.5,5.5s-2.463,5.5-5.5,5.5h-8C196.152,85.939,193.689,83.478,193.689,80.439z
			 M212.062,295.035h-8c-3.037,0-5.5-2.463-5.5-5.5c0-3.038,2.463-5.5,5.5-5.5h8c3.037,0,5.5,2.462,5.5,5.5
			C217.562,292.572,215.1,295.035,212.062,295.035z M250.062,284.035c3.037,0,5.5,2.462,5.5,5.5c0,3.037-2.463,5.5-5.5,5.5h-8
			c-3.037,0-5.5-2.463-5.5-5.5c0-3.038,2.463-5.5,5.5-5.5H250.062z M245.189,85.939h-8c-3.037,0-5.5-2.462-5.5-5.5
			s2.463-5.5,5.5-5.5h8c3.037,0,5.5,2.462,5.5,5.5S248.227,85.939,245.189,85.939z"/>
	</g>
</g>
<g>
</g>
<g>
</g>
<g>
</g>
<g>
</g>
<g>
</g>
<g>
</g>
<g>
</g>
<g>
</g>
<g>
</g>
<g>
</g>
<g>
</g>
<g>
</g>
<g>
</g>
<g>
</g>
<g>
</g>
</svg>
