<?xml version="1.0" encoding="UTF-8" standalone="no"?>
<!-- Generator: Adobe Illustrator 16.0.0, SVG Export Plug-In . SVG Version: 6.00 Build 0)  -->

<svg
   xmlns:dc="http://purl.org/dc/elements/1.1/"
   xmlns:cc="http://creativecommons.org/ns#"
   xmlns:rdf="http://www.w3.org/1999/02/22-rdf-syntax-ns#"
   xmlns:svg="http://www.w3.org/2000/svg"
   xmlns="http://www.w3.org/2000/svg"
   xmlns:xlink="http://www.w3.org/1999/xlink"
   xmlns:sodipodi="http://sodipodi.sourceforge.net/DTD/sodipodi-0.dtd"
   xmlns:inkscape="http://www.inkscape.org/namespaces/inkscape"
   version="1.1"
   id="Layer_1"
   x="0px"
   y="0px"
   width="24"
   height="24"
   viewBox="0 0 24 24"
   enable-background="new 0 0 1280.24 1066.86"
   xml:space="preserve"
   inkscape:version="0.91 r13725"
   sodipodi:docname="WhatsApp_Logo_3.svg"><metadata
   id="metadata19"><rdf:RDF><cc:Work
       rdf:about=""><dc:format>image/svg+xml</dc:format><dc:type
         rdf:resource="http://purl.org/dc/dcmitype/StillImage" /><dc:title></dc:title></cc:Work></rdf:RDF></metadata><defs
   id="defs17" /><sodipodi:namedview
   pagecolor="#ffffff"
   bordercolor="#666666"
   borderopacity="1"
   objecttolerance="10"
   gridtolerance="10"
   guidetolerance="10"
   inkscape:pageopacity="0"
   inkscape:pageshadow="2"
   inkscape:window-width="1600"
   inkscape:window-height="837"
   id="namedview15"
   showgrid="false"
   inkscape:zoom="5.0054088"
   inkscape:cx="-33.696359"
   inkscape:cy="2.7692914"
   inkscape:window-x="-8"
   inkscape:window-y="-8"
   inkscape:window-maximized="1"
   inkscape:current-layer="Layer_1" />
<g
   id="g3"
   transform="matrix(0.49999997,0,0,0.5,-308.11098,-255.9255)">
	<defs
   id="defs5">
		<rect
   id="SVGID_1_"
   y="-0.001"
   width="1280.244"
   height="1066.861"
   x="0" />
	</defs>
	<clipPath
   id="SVGID_2_">
		<use
   xlink:href="#SVGID_1_"
   overflow="visible"
   id="use9"
   style="overflow:visible"
   x="0"
   y="0"
   width="100%"
   height="100%" />
	</clipPath>
	<g
   clip-path="url(#SVGID_2_)"
   id="g11">
		<path
   d="m 657.229,518.827 c -4.512,-4.496 -10.513,-6.973 -16.906,-6.976 -13.173,0 -23.895,10.67 -23.9,23.784 -10e-4,4.191 1.099,8.283 3.19,11.891 l -3.391,12.325 12.669,-3.308 c 3.491,1.896 7.421,2.895 11.421,2.896 l 0.01,0 0,0 c 13.172,0 23.895,-10.671 23.9,-23.785 0.003,-6.356 -2.481,-12.331 -6.993,-16.827 m -16.907,36.595 -0.008,0 c -3.564,-0.002 -7.061,-0.955 -10.11,-2.756 l -0.726,-0.429 -7.518,1.963 2.007,-7.295 -0.472,-0.748 c -1.989,-3.147 -3.039,-6.786 -3.038,-10.521 0.004,-10.9 8.916,-19.768 19.873,-19.768 5.306,0.002 10.294,2.061 14.044,5.798 3.751,3.736 5.814,8.704 5.813,13.986 -0.004,10.901 -8.916,19.77 -19.865,19.77 m 10.897,-14.806 c -0.598,-0.298 -3.533,-1.735 -4.081,-1.934 -0.547,-0.198 -0.945,-0.298 -1.343,0.297 -0.398,0.596 -1.543,1.935 -1.892,2.331 -0.348,0.396 -0.696,0.446 -1.294,0.148 -0.597,-0.298 -2.521,-0.925 -4.802,-2.95 -1.775,-1.575 -2.974,-3.521 -3.322,-4.117 -0.348,-0.595 -0.037,-0.917 0.262,-1.213 0.269,-0.266 0.598,-0.694 0.896,-1.041 0.298,-0.347 0.398,-0.595 0.597,-0.992 0.199,-0.397 0.1,-0.744 -0.05,-1.041 -0.15,-0.297 -1.344,-3.223 -1.841,-4.413 -0.485,-1.159 -0.977,-1.002 -1.344,-1.02 -0.348,-0.017 -0.746,-0.021 -1.144,-0.021 -0.398,0 -1.045,0.149 -1.593,0.744 -0.547,0.595 -2.09,2.033 -2.09,4.958 0,2.925 2.14,5.751 2.438,6.148 0.298,0.396 4.21,6.399 10.201,8.974 1.425,0.612 2.537,0.979 3.404,1.252 1.431,0.453 2.732,0.389 3.762,0.235 1.146,-0.17 3.533,-1.438 4.03,-2.825 0.498,-1.389 0.498,-2.578 0.349,-2.826 -0.149,-0.248 -0.547,-0.396 -1.143,-0.694"
   id="path13"
   inkscape:connector-curvature="0"
   style="clip-rule:evenodd;fill:#455a64;fill-rule:evenodd" />
	</g>
</g>
</svg>